<svg version="1.1" id="Layer_1" xmlns="http://www.w3.org/2000/svg" xmlns:xlink="http://www.w3.org/1999/xlink" x="0px" y="0px"
	 width="100%" viewBox="0 0 512 512" enable-background="new 0 0 512 512" xml:space="preserve">
<path fill="#000000" opacity="1.000000" stroke="none" 
	d="
M1.000000,187.000000 
	C1.000000,124.666664 1.000000,62.833332 1.000000,1.000000 
	C171.666672,1.000000 342.333344,1.000000 513.000000,1.000000 
	C513.000000,171.666672 513.000000,342.333344 513.000000,513.000000 
	C342.333344,513.000000 171.666672,513.000000 1.000000,513.000000 
	C1.000000,404.500000 1.000000,296.000000 1.000000,187.000000 
M101.775032,494.007233 
	C112.447914,497.101624 122.990974,495.981781 133.429428,492.884460 
	C134.294724,492.627716 135.335022,491.453735 135.490540,490.565277 
	C136.283203,486.036865 132.927673,481.871460 127.965981,480.267609 
	C124.587975,474.791016 119.484467,471.727753 113.525681,469.756714 
	C106.026970,467.276276 105.013298,465.793182 105.757004,457.990479 
	C109.194603,459.406525 112.632195,460.822571 116.228989,462.304199 
	C120.909828,453.715393 125.715317,445.567963 129.886414,437.107758 
	C139.134216,418.350464 148.240829,399.518768 157.075363,380.563812 
	C166.825699,359.643951 176.125687,338.529846 175.379974,314.552917 
	C177.172470,320.810760 179.540619,327.055481 179.819946,333.392273 
	C180.652969,352.290314 180.694412,371.223999 180.992783,390.144592 
	C181.356674,413.221039 181.667480,436.298309 182.000626,459.375244 
	C182.007843,459.874786 181.797516,460.602509 182.048141,460.833008 
	C182.944901,461.657867 183.996704,462.314117 185.001968,463.887360 
	C184.424774,467.964722 183.847565,472.042084 183.107010,476.967499 
	C182.451920,482.114227 181.796829,487.260986 181.106445,492.684998 
	C209.098099,492.684998 236.794296,492.684998 264.459442,492.684998 
	C265.553436,485.890106 263.647644,483.167175 256.741852,481.318634 
	C252.185455,478.861267 247.629074,476.403900 243.008804,473.017853 
	C242.672638,446.136169 242.391144,419.253601 241.975555,392.373169 
	C241.788864,380.296661 241.204987,368.226196 241.027664,356.149689 
	C240.645340,330.112579 240.409439,304.073273 240.913162,278.007629 
	C247.576141,277.863251 245.402145,272.569519 246.812195,269.291199 
	C248.782013,269.613129 250.766846,270.277924 252.718842,270.192535 
	C258.505310,269.939392 264.285828,269.455231 270.044250,268.834717 
	C270.507019,268.784882 270.782928,267.000397 272.059631,266.005707 
	C277.360809,265.617401 282.662018,265.229095 288.760315,264.997192 
	C290.839142,265.387177 292.917938,265.777191 294.994995,267.005280 
	C293.996613,276.412994 292.754120,285.803040 292.069916,295.233521 
	C291.411713,304.305603 290.897980,313.431000 291.137085,322.511444 
	C291.320312,329.470581 291.608887,336.802399 293.862213,343.267334 
	C304.306610,373.233063 315.405975,402.971466 326.386749,432.748505 
	C328.662231,438.919128 331.430908,444.907867 333.828461,450.636780 
	C336.745605,449.922516 338.943909,449.384277 341.706696,449.436035 
	C342.605713,459.047302 340.683197,462.642578 332.278290,466.920044 
	C330.067535,468.045166 327.510681,468.692566 325.614319,470.193146 
	C320.916260,473.910583 316.508057,477.994415 311.325623,482.234741 
	C307.935760,484.924438 307.431274,488.444885 308.561432,493.517487 
	C317.617615,494.004944 326.932922,495.244171 336.166656,494.797272 
	C345.525177,494.344360 354.845917,492.424438 362.171967,485.484833 
	C363.446930,484.277100 365.346283,483.728577 366.984528,483.571869 
	C366.973053,484.036133 366.961578,484.500366 366.291901,485.319275 
	C365.325714,487.598633 364.359528,489.877960 363.073822,492.911072 
	C381.520996,492.911072 398.434296,492.890228 415.347473,492.927338 
	C419.069305,492.935486 419.389313,490.281738 418.880188,487.877991 
	C417.785492,482.709442 415.822601,477.863586 410.760468,474.220306 
	C409.180817,471.530548 407.601166,468.840790 406.856506,466.021423 
	C412.187897,465.908722 410.662842,461.459900 410.870300,458.832581 
	C411.829865,446.682495 412.365662,434.498016 412.987518,422.322479 
	C413.694580,408.478607 414.387085,394.633514 414.985321,380.784637 
	C415.712402,363.954041 416.686615,347.123688 416.915497,330.284576 
	C417.223206,307.646729 416.920593,285.000610 417.500854,262.029663 
	C427.394226,259.793884 428.331635,259.165710 427.930664,251.470520 
	C427.178711,237.039459 426.017242,222.629471 424.995941,208.212860 
	C424.713409,204.224716 424.324615,200.244110 423.962555,196.001663 
	C427.559814,196.001663 430.542542,196.039505 433.524017,195.994659 
	C442.953674,195.852859 451.507965,188.330643 453.167328,180.171280 
	C455.612244,168.149155 452.423279,157.318466 447.340759,146.921936 
	C436.905090,125.575256 424.578491,105.508942 409.832764,86.649696 
	C401.493042,75.983521 378.206879,70.316750 367.791290,72.392708 
	C364.529877,70.578018 361.268433,68.763329 357.775757,66.246994 
	C357.473969,64.852257 357.172211,63.457523 357.156891,61.437904 
	C363.127075,55.703022 367.562439,48.997658 369.489288,40.887817 
	C371.195984,33.704514 369.120270,27.477009 363.844818,22.363548 
	C359.607635,18.256474 354.769867,19.936316 349.927460,20.931379 
	C348.533844,21.217743 346.807159,20.735844 345.437592,20.137943 
	C339.647675,17.610256 335.722504,19.255239 333.032379,25.031752 
	C331.811127,27.654133 330.165833,30.326977 328.038483,32.218342 
	C325.214020,34.729462 323.046631,37.338886 324.228394,41.102234 
	C325.501404,45.156059 328.353821,47.846302 332.990082,48.885136 
	C333.970032,52.403217 334.047760,58.196228 336.100159,59.010220 
	C342.111145,61.394199 340.851959,65.701584 340.194336,70.043289 
	C333.363861,70.148956 328.061005,73.646179 322.236542,77.980072 
	C310.650421,79.718086 301.339508,85.592445 295.117737,95.211380 
	C286.749268,108.149094 279.473297,121.788696 271.422363,134.939667 
	C269.166779,138.624115 266.486450,143.083191 262.880768,144.721390 
	C249.635132,150.739410 235.918472,155.720642 222.067780,160.512985 
	C221.521194,157.785400 220.020630,156.095627 216.804214,155.278214 
	C216.307053,154.454773 215.714691,153.673645 215.327072,152.801529 
	C209.771790,140.302719 204.921005,127.432274 198.523804,115.382233 
	C191.819000,102.752785 179.979721,96.496384 166.005569,93.216309 
	C163.330231,90.037376 164.542465,84.245056 159.000885,82.145325 
	C159.568451,81.002609 160.007828,79.770638 160.728973,78.734856 
	C162.486893,76.209961 165.179688,74.016434 166.008286,71.244720 
	C167.049911,67.760437 166.608902,63.832916 167.505463,59.756615 
	C168.321884,56.933014 169.958817,54.042980 169.737000,51.303444 
	C169.486908,48.214870 169.582214,43.635918 165.056488,43.126549 
	C158.323700,42.368790 151.511108,42.253071 144.726898,42.055141 
	C142.304382,41.984459 139.748962,43.057751 137.453827,42.602501 
	C125.340576,40.199795 119.380699,44.295742 118.011559,56.361797 
	C117.273674,62.864738 114.039993,65.136810 107.515228,63.736786 
	C101.353493,62.414658 96.430191,64.839317 95.103165,70.903862 
	C94.229279,74.897575 94.937897,79.237579 94.937897,83.597748 
	C92.590042,84.207008 90.559158,84.827347 88.488365,85.254013 
	C82.082458,86.573898 79.837334,93.561943 80.496887,99.138916 
	C81.512138,107.723495 86.865402,112.573029 93.754036,116.765198 
	C82.187645,129.626663 74.028053,144.270050 71.075981,161.448196 
	C69.435974,170.991470 69.979591,180.519363 72.370636,190.129242 
	C71.444107,192.465347 69.369713,195.066589 69.835037,197.081223 
	C70.744804,201.020081 72.821571,204.779999 74.915062,208.318253 
	C76.033813,210.209076 78.194130,211.483643 79.986458,213.878677 
	C80.826050,218.960037 81.643005,224.045273 82.509888,229.121979 
	C84.380722,240.078003 86.277184,251.029648 87.801773,262.700806 
	C87.200539,264.301514 86.163437,265.880096 86.080833,267.507141 
	C85.845222,272.147736 85.664360,276.842560 86.140137,281.445953 
	C86.374565,283.714203 88.105423,285.827820 89.018837,288.937927 
	C89.012474,297.268951 88.988800,305.599976 89.002838,313.930969 
	C89.053932,344.253082 89.117630,374.575165 89.034821,405.648956 
	C83.953194,417.619232 78.949104,429.623474 73.731636,441.534241 
	C72.531807,444.273315 73.048027,445.566040 75.723755,446.667725 
	C75.148636,447.450623 74.573509,448.233521 73.373642,449.255310 
	C69.724693,452.605072 65.957054,455.839966 62.518219,459.393066 
	C61.750839,460.185974 61.470818,462.776093 62.095482,463.390106 
	C70.279579,471.434601 78.666649,479.272583 87.007362,488.042419 
	C87.007362,489.944031 87.007362,491.845673 87.007362,493.836060 
	C92.072868,493.836060 96.512070,493.836060 101.775032,494.007233 
z"/>
<path fill="#00C1D7" opacity="1.000000" stroke="none" 
	d="
M416.879944,262.358032 
	C416.920593,285.000610 417.223206,307.646729 416.915497,330.284576 
	C416.686615,347.123688 415.712402,363.954041 414.985321,380.784637 
	C414.387085,394.633514 413.694580,408.478607 412.987518,422.322479 
	C412.365662,434.498016 411.829865,446.682495 410.870300,458.832581 
	C410.662842,461.459900 412.187897,465.908722 405.977814,465.996521 
	C396.021545,466.036469 386.943970,466.101257 377.449219,466.081604 
	C375.437286,465.854370 373.842529,465.711578 372.149658,465.559967 
	C371.711334,461.157684 371.303802,457.064148 370.951355,452.518433 
	C370.774719,448.047211 370.542999,444.028168 370.258179,439.087891 
	C359.821594,442.585693 350.481934,445.715881 341.142242,448.846069 
	C338.943909,449.384277 336.745605,449.922516 333.828461,450.636780 
	C331.430908,444.907867 328.662231,438.919128 326.386749,432.748505 
	C315.405975,402.971466 304.306610,373.233063 293.862213,343.267334 
	C291.608887,336.802399 291.320312,329.470581 291.137085,322.511444 
	C290.897980,313.431000 291.411713,304.305603 292.069916,295.233521 
	C292.754120,285.803040 293.996613,276.412994 295.438568,266.524017 
	C306.549103,266.941589 314.656433,262.196167 319.237518,253.121033 
	C324.127441,243.434097 327.495667,232.979019 331.978027,222.936096 
	C347.028198,224.886917 361.578735,224.600113 376.166931,222.465118 
	C376.861267,231.337799 376.761200,239.878357 378.234344,248.138321 
	C380.410034,260.337708 388.948486,266.729950 400.881012,265.703003 
	C406.270050,265.239258 411.550323,263.512024 416.879944,262.358032 
M351.493378,353.996033 
	C357.108276,376.845978 362.723175,399.695923 368.338074,422.545868 
	C368.363800,414.117065 367.587616,405.801941 367.027771,397.472290 
	C366.265930,386.137329 365.681488,374.790497 364.998840,363.450104 
	C364.009857,347.019531 363.288483,330.565857 361.901215,314.168732 
	C360.953217,302.963623 359.064575,291.838135 357.399536,279.179871 
	C355.776855,291.135834 354.380951,301.601562 352.931000,312.059784 
	C351.034607,325.737732 346.332703,339.284790 351.493378,353.996033 
z"/>
<path fill="#F6DF0C" opacity="1.000000" stroke="none" 
	d="
M73.017159,189.809296 
	C69.979591,180.519363 69.435974,170.991470 71.075981,161.448196 
	C74.028053,144.270050 82.187645,129.626663 94.195633,116.320419 
	C103.514351,105.150108 113.277374,95.586349 127.422638,91.113319 
	C130.166702,91.023338 132.479553,91.023926 134.858871,91.434464 
	C136.418289,96.922745 137.497528,102.173332 139.520142,107.031136 
	C141.556305,111.921494 144.158081,111.981285 147.634399,107.847374 
	C148.945175,106.288651 150.074463,104.577309 151.427231,102.744888 
	C152.397461,104.140846 153.024673,105.120758 153.728210,106.042389 
	C157.191025,110.578644 159.376022,110.701729 162.203140,105.585960 
	C164.149246,102.064430 164.861984,97.861305 166.125977,93.962814 
	C179.979721,96.496384 191.819000,102.752785 198.523804,115.382233 
	C204.921005,127.432274 209.771790,140.302719 215.327072,152.801529 
	C215.714691,153.673645 216.307053,154.454773 216.704437,155.912384 
	C209.750031,158.707123 202.895386,160.867676 195.886124,163.076950 
	C198.222046,172.087799 200.314499,180.159424 202.517807,188.658722 
	C211.258423,183.991837 219.237167,179.731750 227.495331,175.675934 
	C234.185059,182.642227 240.595398,189.404221 247.016129,196.554810 
	C247.260986,197.355652 247.616272,197.741669 247.712143,198.183945 
	C249.874359,208.158859 251.495987,218.304916 259.258636,226.046310 
	C260.072296,226.857727 259.112976,229.446976 258.623596,231.065247 
	C252.573059,229.167831 239.991302,236.416931 237.497070,242.714935 
	C234.143707,241.375916 231.155090,239.999969 227.875885,238.366653 
	C224.519745,237.532806 221.454193,236.956345 218.371307,236.376633 
	C218.928589,238.196030 219.165359,240.158234 220.085678,241.716797 
	C221.799820,244.619751 220.730209,246.106720 217.649109,247.071289 
	C196.265442,255.951538 174.535812,262.180511 151.447159,264.038361 
	C149.833710,263.158661 148.482269,262.477020 147.104034,261.426422 
	C144.490372,256.675415 142.075974,252.177307 139.239380,247.963364 
	C137.943008,246.037506 135.975449,243.518097 134.036423,243.247940 
	C124.766960,241.956421 115.876419,243.246323 109.328957,248.366028 
	C109.328957,251.547195 109.540886,253.643250 109.270645,255.675201 
	C108.987900,257.801178 108.241737,259.865479 107.263580,261.947327 
	C103.623810,261.922119 100.418587,261.906311 97.137894,261.481262 
	C95.792328,253.716415 94.522232,246.360764 93.576843,238.965332 
	C96.171410,239.817047 98.441269,240.708572 100.789787,241.630997 
	C100.464249,240.253311 100.031448,238.421661 99.559273,236.423416 
	C97.167999,237.007538 95.026360,237.530685 92.565445,237.933990 
	C90.488586,235.124710 88.252129,232.627731 87.076889,229.704163 
	C84.887146,224.256897 83.314903,218.561401 81.676102,212.657806 
	C92.688751,206.927612 103.428497,201.334183 114.369987,196.168030 
	C119.397179,193.794388 120.226646,192.720062 118.061455,187.489685 
	C116.854050,184.572998 115.419418,181.743744 114.336380,178.783905 
	C112.943710,174.977905 110.522820,173.580139 106.575279,174.674118 
	C104.983498,175.115234 103.294579,175.193024 101.663956,175.508896 
	C90.789665,177.615402 81.713943,183.334961 73.017159,189.809296 
M122.924301,193.681076 
	C123.152199,193.921448 123.380104,194.161819 123.957985,194.921524 
	C124.226280,194.917709 124.494568,194.913910 124.762863,194.910080 
	C124.597488,194.520340 124.432121,194.130615 124.131859,193.263092 
	C124.016243,192.938477 123.811607,192.686050 123.136795,192.165298 
	C122.897491,192.194565 122.658195,192.223831 122.418892,192.253098 
	C122.550690,192.564117 122.682495,192.875137 122.924301,193.681076 
M132.758530,203.871918 
	C132.954971,204.134674 133.196701,204.345551 133.692520,205.012527 
	C134.071152,205.392868 134.449783,205.773193 134.923401,206.614609 
	C135.382904,206.757767 135.842422,206.900925 136.301941,207.044067 
	C136.035126,206.556610 135.768326,206.069138 135.241257,205.084137 
	C134.850006,204.697540 134.458740,204.310944 133.891907,203.459122 
	C133.695389,203.165802 133.422974,202.990311 132.803925,202.424866 
	C132.531616,202.422409 132.259323,202.419968 131.987015,202.417511 
	C132.156311,202.768494 132.325592,203.119461 132.758530,203.871918 
M130.178513,201.630341 
	C130.448837,201.623596 130.719147,201.616852 130.989471,201.610107 
	C130.831177,201.250290 130.672882,200.890488 130.280014,200.105057 
	C130.067474,199.859329 129.822113,199.652557 129.244858,199.089066 
	C128.997925,198.865524 128.721298,198.688324 128.179962,198.134995 
	C127.971878,197.881210 127.717842,197.687775 127.206520,197.128128 
	C127.026604,196.861450 126.797073,196.648193 126.110741,196.032181 
	C125.847069,196.040543 125.583397,196.048904 125.319725,196.057251 
	C125.495583,196.424332 125.671448,196.791412 126.010727,197.631561 
	C126.278687,197.817719 126.546646,198.003860 127.001244,198.653046 
	C127.200256,198.945541 127.474045,199.122162 128.011200,199.642731 
	C128.211288,199.929199 128.482040,200.109665 129.027237,200.642120 
	C129.308533,200.809174 129.589813,200.976227 130.178513,201.630341 
M136.840683,234.582077 
	C137.264648,235.305115 137.688599,236.028137 138.112564,236.751175 
	C138.284836,236.670380 138.457123,236.589584 138.629395,236.508789 
	C137.729233,233.004532 136.829056,229.500259 135.926117,225.985245 
	C131.894913,228.760681 136.267471,231.234299 136.840683,234.582077 
M138.645660,223.438202 
	C138.348236,223.081757 138.050797,222.725296 137.753372,222.368851 
	C137.597443,223.239288 137.441513,224.109726 137.285583,224.980164 
	C137.630508,224.678711 137.975433,224.377243 138.645660,223.438202 
M103.485229,248.080444 
	C103.245644,248.225601 103.006058,248.370758 102.766479,248.515915 
	C103.013779,248.650909 103.334732,248.950500 103.490448,248.880814 
	C103.702850,248.785751 103.789322,248.409271 103.485229,248.080444 
z"/>
<path fill="#8F00CD" opacity="1.000000" stroke="none" 
	d="
M151.709152,264.236420 
	C174.535812,262.180511 196.265442,255.951538 217.659302,247.459473 
	C221.025284,260.377563 224.224670,272.789093 226.925659,285.308105 
	C228.901199,294.464569 230.221405,303.762390 231.904327,313.461304 
	C231.928787,325.619446 231.882645,337.313538 231.495621,349.262238 
	C229.831512,386.829712 225.776917,423.895844 222.138443,461.095917 
	C218.770798,461.095917 216.447205,461.095917 213.649323,461.047302 
	C209.059753,461.007751 204.924988,460.767639 200.834106,461.087982 
	C195.534393,461.502991 190.269669,462.364746 184.989868,463.034180 
	C183.996704,462.314117 182.944901,461.657867 182.048141,460.833008 
	C181.797516,460.602509 182.007843,459.874786 182.000626,459.375244 
	C181.667480,436.298309 181.356674,413.221039 180.992783,390.144592 
	C180.694412,371.223999 180.652969,352.290314 179.819946,333.392273 
	C179.540619,327.055481 177.172470,320.810760 175.379974,314.552917 
	C176.125687,338.529846 166.825699,359.643951 157.075363,380.563812 
	C148.240829,399.518768 139.134216,418.350464 129.886414,437.107758 
	C125.715317,445.567963 120.909828,453.715393 116.228989,462.304199 
	C112.632195,460.822571 109.194603,459.406525 105.229622,457.674133 
	C102.524345,456.522400 100.346458,455.687012 98.101044,454.396729 
	C98.077904,430.294128 98.122284,406.646454 98.473511,382.807373 
	C104.721985,368.356750 110.763321,354.137695 116.529564,339.807922 
	C117.840660,336.549713 119.705086,332.407318 118.746864,329.525879 
	C113.319717,313.206055 107.111603,297.145966 101.102203,280.550995 
	C101.116814,278.722748 101.198586,277.340942 101.298218,275.657593 
	C104.253868,275.657593 106.819199,275.657593 109.601944,275.905579 
	C112.722946,285.263855 120.589668,284.767395 127.680450,284.809692 
	C131.337265,284.831573 135.239578,281.684265 138.617950,282.286377 
	C145.124527,283.446045 145.205688,280.057190 145.454147,275.651611 
	C152.108322,274.466187 152.725800,273.268707 151.709152,264.236420 
M172.839539,295.822876 
	C173.159210,298.848358 173.478897,301.873840 173.798569,304.899323 
	C174.232330,304.827393 174.666077,304.755463 175.099838,304.683563 
	C173.744247,292.770630 172.388657,280.857697 171.033066,268.944763 
	C170.608719,268.989655 170.184357,269.034515 169.760010,269.079407 
	C170.703552,277.706360 171.647079,286.333282 172.839539,295.822876 
z"/>
<path fill="#FDF2FE" opacity="1.000000" stroke="none" 
	d="
M247.005722,196.166214 
	C240.595398,189.404221 234.185059,182.642227 227.531921,175.297455 
	C225.652451,170.173798 224.015762,165.632935 222.379074,161.092072 
	C235.918472,155.720642 249.635132,150.739410 262.880768,144.721390 
	C266.486450,143.083191 269.166779,138.624115 271.422363,134.939667 
	C279.473297,121.788696 286.749268,108.149094 295.117737,95.211380 
	C301.339508,85.592445 310.650421,79.718086 322.686890,78.244278 
	C316.668182,86.774101 315.232544,96.187637 316.547028,106.333656 
	C316.738983,107.815163 316.251740,110.231483 315.231628,110.877464 
	C310.678955,113.760368 309.008942,118.163651 309.564453,122.863457 
	C310.297272,129.062576 311.874268,135.229126 313.750854,141.201523 
	C314.947601,145.010345 317.423218,144.860291 320.714325,141.083740 
	C319.104797,141.179199 317.705017,141.262222 314.920258,141.427383 
	C313.829926,134.690475 312.189819,127.943039 311.805542,121.124825 
	C311.490723,115.539093 314.695801,112.554169 319.614899,111.882988 
	C325.279633,111.110046 329.638855,113.079353 330.766327,118.560402 
	C332.014618,124.628906 331.876221,131.007721 332.006439,137.258392 
	C332.030273,138.402969 330.450378,139.580963 329.586639,140.776962 
	C332.416809,141.591751 334.199585,140.728729 334.289764,137.616364 
	C334.424011,132.983948 334.968536,128.269791 334.342224,123.727791 
	C332.893127,113.218781 329.746094,110.456406 319.429138,109.248932 
	C314.999115,88.340706 323.440643,74.510452 340.991577,74.431671 
	C341.019928,77.245728 341.007416,79.616959 340.839355,82.371048 
	C340.497711,84.067009 340.199341,85.375252 340.142120,86.693954 
	C339.076050,111.261024 338.399567,135.851608 336.884796,160.390549 
	C335.597534,181.244217 333.350555,202.038635 331.528198,222.859268 
	C327.495667,232.979019 324.127441,243.434097 319.237518,253.121033 
	C314.656433,262.196167 306.549103,266.941589 295.439453,266.104980 
	C292.917938,265.777191 290.839142,265.387177 288.409882,264.522705 
	C290.876862,255.016174 288.798035,252.065018 279.604767,252.070709 
	C276.792084,252.072464 273.979431,252.112289 271.068115,251.753326 
	C270.892242,250.588409 270.815002,249.804840 270.857483,248.626801 
	C278.099518,224.121429 286.371094,200.298569 290.207428,175.009186 
	C282.722931,179.405441 276.182739,183.795746 269.168823,187.213959 
	C262.023804,190.696060 254.412720,193.221756 247.005722,196.166214 
z"/>
<path fill="#FEF2FF" opacity="1.000000" stroke="none" 
	d="
M417.190399,262.193848 
	C411.550323,263.512024 406.270050,265.239258 400.881012,265.703003 
	C388.948486,266.729950 380.410034,260.337708 378.234344,248.138321 
	C376.761200,239.878357 376.861267,231.337799 376.280823,222.064865 
	C376.540527,212.535767 376.777100,203.864532 377.440186,195.142883 
	C389.474426,196.067261 401.077881,197.102142 412.695984,197.932419 
	C413.989410,198.024857 415.366028,196.952988 416.704071,196.421051 
	C415.591248,195.541595 414.609131,194.322250 413.345032,193.836121 
	C402.662231,189.727844 391.958252,185.669708 381.195862,181.775452 
	C376.097168,179.930527 373.085510,176.923157 373.878723,170.713257 
	C373.306000,161.551376 372.692841,152.836823 372.494690,144.091370 
	C388.671509,146.136749 404.433319,148.213028 420.509155,150.330673 
	C421.669220,136.180832 422.775452,122.687553 423.910065,108.848373 
	C415.954834,108.169853 408.515503,107.535332 401.035614,106.482590 
	C400.212128,104.798225 399.544983,102.530960 398.627869,102.424873 
	C391.515717,101.602127 384.355347,101.196510 377.251404,100.664902 
	C376.735199,102.414185 376.366913,103.662148 375.646759,104.873505 
	C374.589081,104.794312 373.883331,104.751709 373.143616,104.314651 
	C373.306732,102.295013 373.574585,100.674805 373.688904,99.043831 
	C374.314606,90.115654 374.407959,81.296547 368.017456,73.709633 
	C368.002838,73.477104 368.090546,73.019463 368.090546,73.019463 
	C378.206879,70.316750 401.493042,75.983521 409.832764,86.649696 
	C424.578491,105.508942 436.905090,125.575256 447.340759,146.921936 
	C452.423279,157.318466 455.612244,168.149155 453.167328,180.171280 
	C451.507965,188.330643 442.953674,195.852859 433.524017,195.994659 
	C430.542542,196.039505 427.559814,196.001663 423.962555,196.001663 
	C424.324615,200.244110 424.713409,204.224716 424.995941,208.212860 
	C426.017242,222.629471 427.178711,237.039459 427.930664,251.470520 
	C428.331635,259.165710 427.394226,259.793884 417.190399,262.193848 
z"/>
<path fill="#580C7F" opacity="1.000000" stroke="none" 
	d="
M126.991409,91.203888 
	C113.277374,95.586349 103.514351,105.150108 94.319344,116.011078 
	C86.865402,112.573029 81.512138,107.723495 80.496887,99.138916 
	C79.837334,93.561943 82.082458,86.573898 88.488365,85.254013 
	C90.559158,84.827347 92.590042,84.207008 94.937897,83.597748 
	C94.937897,79.237579 94.229279,74.897575 95.103165,70.903862 
	C96.430191,64.839317 101.353493,62.414658 107.515228,63.736786 
	C114.039993,65.136810 117.273674,62.864738 118.011559,56.361797 
	C119.380699,44.295742 125.340576,40.199795 137.453827,42.602501 
	C139.748962,43.057751 142.304382,41.984459 144.726898,42.055141 
	C151.511108,42.253071 158.323700,42.368790 165.056488,43.126549 
	C169.582214,43.635918 169.486908,48.214870 169.737000,51.303444 
	C169.958817,54.042980 168.321884,56.933014 166.882294,59.685745 
	C165.171173,55.100079 163.985352,50.661789 158.421173,49.300182 
	C158.120514,50.384365 157.939270,51.187393 157.676392,51.962749 
	C155.191635,59.291565 151.867355,61.078056 144.509186,59.057991 
	C141.044998,58.106956 137.780106,61.167423 139.416092,64.527885 
	C140.779266,67.327957 143.928711,69.258415 146.286987,71.574036 
	C146.937607,71.500435 147.588242,71.426842 148.238861,71.353241 
	C146.845535,73.924980 145.452209,76.496719 143.741882,78.938553 
	C136.073700,72.014046 130.596939,64.245911 130.212479,53.674881 
	C130.084763,57.516651 130.342728,61.270840 130.844910,64.992073 
	C131.900818,72.816231 134.327042,80.850952 126.062187,86.726357 
	C125.563126,87.081131 126.645103,89.659943 126.991409,91.203888 
z"/>
<path fill="#00E4E0" opacity="1.000000" stroke="none" 
	d="
M231.836517,349.007599 
	C231.882645,337.313538 231.928787,325.619446 231.977295,312.997009 
	C231.701889,300.050049 231.424133,288.031494 231.515594,276.059998 
	C234.627762,276.749634 237.370682,277.392273 240.113617,278.034882 
	C240.409439,304.073273 240.645340,330.112579 241.027664,356.149689 
	C241.204987,368.226196 241.788864,380.296661 241.975555,392.373169 
	C242.391144,419.253601 242.672638,446.136169 242.642792,473.629395 
	C239.462936,473.494110 236.649124,472.747345 233.907715,471.535645 
	C233.653290,453.048798 233.317520,435.027100 233.001846,417.005035 
	C232.604828,394.339355 232.224213,371.673431 231.836517,349.007599 
z"/>
<path fill="#00E4E0" opacity="1.000000" stroke="none" 
	d="
M98.166664,382.998749 
	C98.122284,406.646454 98.077904,430.294128 98.031158,454.876221 
	C98.121651,464.158966 98.214500,472.507263 97.832703,480.896057 
	C94.820190,480.935211 92.282326,480.933899 89.808105,480.552124 
	C89.833374,479.148987 89.794983,478.126251 89.833618,476.630096 
	C89.861160,467.767883 89.811676,459.379120 89.839279,450.528137 
	C89.926430,436.426575 89.959167,422.787170 89.912743,409.148041 
	C89.907921,407.730316 89.433243,406.314148 89.176575,404.897278 
	C89.117630,374.575165 89.053932,344.253082 89.002838,313.930969 
	C88.988800,305.599976 89.012474,297.268951 89.523346,288.465698 
	C92.638847,287.994995 95.249840,287.996552 97.922043,288.464050 
	C98.044395,320.286224 98.105530,351.642487 98.166664,382.998749 
z"/>
<path fill="#570C80" opacity="1.000000" stroke="none" 
	d="
M341.424469,449.141052 
	C350.481934,445.715881 359.821594,442.585693 370.258179,439.087891 
	C370.542999,444.028168 370.774719,448.047211 370.692627,452.784973 
	C369.869354,455.581879 369.134399,457.634003 368.891296,459.742859 
	C368.038971,467.136810 366.699341,474.418976 359.726685,478.598724 
	C354.942749,481.466431 349.807739,483.912201 344.564453,485.816406 
	C333.162445,489.957306 322.681213,484.674591 311.983429,481.931061 
	C316.508057,477.994415 320.916260,473.910583 325.614319,470.193146 
	C327.510681,468.692566 330.067535,468.045166 332.278290,466.920044 
	C340.683197,462.642578 342.605713,459.047302 341.424469,449.141052 
z"/>
<path fill="#02C1D5" opacity="1.000000" stroke="none" 
	d="
M72.693893,189.969269 
	C81.713943,183.334961 90.789665,177.615402 101.663956,175.508896 
	C103.294579,175.193024 104.983498,175.115234 106.575279,174.674118 
	C110.522820,173.580139 112.943710,174.977905 114.336380,178.783905 
	C115.419418,181.743744 116.854050,184.572998 118.061455,187.489685 
	C120.226646,192.720062 119.397179,193.794388 114.369987,196.168030 
	C103.428497,201.334183 92.688751,206.927612 81.409546,212.671661 
	C80.596489,213.010056 80.240433,213.023193 79.884377,213.036316 
	C78.194130,211.483643 76.033813,210.209076 74.915062,208.318253 
	C72.821571,204.779999 70.744804,201.020081 69.835037,197.081223 
	C69.369713,195.066589 71.444107,192.465347 72.693893,189.969269 
z"/>
<path fill="#580B81" opacity="1.000000" stroke="none" 
	d="
M233.835297,472.000580 
	C236.649124,472.747345 239.462936,473.494110 242.674728,474.093719 
	C247.629074,476.403900 252.185455,478.861267 256.635101,481.821777 
	C251.552673,488.832397 245.128067,489.147064 238.312164,486.128387 
	C230.395767,482.622314 222.854538,482.034241 215.117203,486.710083 
	C211.131927,489.118500 206.547241,488.466492 203.825668,484.853699 
	C198.509644,477.796692 191.332809,476.164368 183.270370,476.119446 
	C183.847565,472.042084 184.424774,467.964722 184.995926,463.460754 
	C190.269669,462.364746 195.534393,461.502991 200.834106,461.087982 
	C204.924988,460.767639 209.059753,461.007751 213.730225,461.370361 
	C218.719376,469.130524 225.863312,471.354584 233.835297,472.000580 
z"/>
<path fill="#590C80" opacity="1.000000" stroke="none" 
	d="
M332.945312,48.037136 
	C328.353821,47.846302 325.501404,45.156059 324.228394,41.102234 
	C323.046631,37.338886 325.214020,34.729462 328.038483,32.218342 
	C330.165833,30.326977 331.811127,27.654133 333.032379,25.031752 
	C335.722504,19.255239 339.647675,17.610256 345.437592,20.137943 
	C346.807159,20.735844 348.533844,21.217743 349.927460,20.931379 
	C354.769867,19.936316 359.607635,18.256474 363.844818,22.363548 
	C369.120270,27.477009 371.195984,33.704514 369.489288,40.887817 
	C367.562439,48.997658 363.127075,55.703022 356.731750,61.608139 
	C355.245667,60.474342 354.184753,59.170307 353.062561,57.929653 
	C353.001282,57.993034 353.129059,57.872322 353.090088,57.492302 
	C352.659515,55.051659 352.267944,52.991043 352.100464,52.109734 
	C355.098572,51.441181 358.445129,51.668972 359.649689,50.172546 
	C361.062195,48.417793 361.490204,44.808842 360.636627,42.693634 
	C360.132050,41.443359 356.322357,41.526890 353.249573,40.844112 
	C353.221863,40.751839 352.860229,39.547829 352.428253,38.109718 
	C346.993500,40.547771 346.000458,36.013428 343.924805,32.134903 
	C340.470093,35.682140 340.356934,42.169468 334.441803,41.341690 
	C333.850372,43.987823 333.397827,46.012478 332.945312,48.037136 
z"/>
<path fill="#FB58CD" opacity="1.000000" stroke="none" 
	d="
M270.737762,249.021271 
	C270.815002,249.804840 270.892242,250.588409 271.069855,252.122818 
	C271.761230,256.957336 275.453430,261.103577 270.930267,265.107819 
	C270.819275,265.206055 271.065857,265.708191 271.145660,266.021973 
	C270.782928,267.000397 270.507019,268.784882 270.044250,268.834717 
	C264.285828,269.455231 258.505310,269.939392 252.718842,270.192535 
	C250.766846,270.277924 248.782013,269.613129 246.421219,268.732239 
	C245.587463,264.553558 245.144699,260.933868 244.612411,256.582458 
	C246.417068,257.829529 247.610001,258.653839 248.652328,259.374084 
	C249.153152,257.836731 249.623047,256.394348 250.092926,254.951935 
	C250.620789,254.699005 251.148666,254.446075 251.676529,254.193130 
	C252.691879,255.601669 253.707230,257.010193 254.681808,258.362152 
	C255.048233,257.020935 255.448853,255.554626 256.102295,253.162827 
	C258.296967,255.210907 259.882965,256.690979 261.483795,258.184875 
	C262.170837,251.867081 262.128784,252.045273 255.831802,252.014542 
	C250.500000,251.988525 245.171112,251.370102 239.908875,250.621124 
	C239.271820,247.711609 238.566818,245.194824 237.861816,242.678024 
	C239.991302,236.416931 252.573059,229.167831 258.774658,231.363068 
	C263.098175,237.545120 266.917969,243.283188 270.737762,249.021271 
z"/>
<path fill="#FB82DE" opacity="1.000000" stroke="none" 
	d="
M332.967712,48.461136 
	C333.397827,46.012478 333.850372,43.987823 334.441803,41.341690 
	C340.356934,42.169468 340.470093,35.682140 343.924805,32.134903 
	C346.000458,36.013428 346.993500,40.547771 352.428253,38.109718 
	C352.860229,39.547829 353.221863,40.751839 353.249573,40.844112 
	C356.322357,41.526890 360.132050,41.443359 360.636627,42.693634 
	C361.490204,44.808842 361.062195,48.417793 359.649689,50.172546 
	C358.445129,51.668972 355.098572,51.441181 352.100464,52.109734 
	C352.267944,52.991043 352.659515,55.051659 352.852478,57.629402 
	C352.437469,58.433174 352.221100,58.719814 351.624634,59.050617 
	C349.069519,59.736561 346.844269,60.250423 344.741547,61.076191 
	C343.748260,61.466267 342.989746,62.454044 342.124878,63.171005 
	C343.257385,63.754951 344.951874,65.128166 345.427460,64.789513 
	C347.792389,63.105667 349.836365,60.971046 352.237518,58.870617 
	C352.695740,58.452812 352.909790,58.159546 353.123840,57.866272 
	C354.184753,59.170307 355.245667,60.474342 356.588501,61.920582 
	C357.172211,63.457523 357.473969,64.852257 357.591125,66.746346 
	C358.294281,68.789185 359.182098,70.332672 359.795837,72.040611 
	C359.665192,74.267067 359.808655,76.329056 359.665283,78.618935 
	C353.737183,85.241325 348.921600,86.064209 340.994873,81.988197 
	C341.007416,79.616959 341.019928,77.245728 341.047241,74.099792 
	C341.048828,72.197792 341.035675,71.070473 341.022522,69.943161 
	C340.851959,65.701584 342.111145,61.394199 336.100159,59.010220 
	C334.047760,58.196228 333.970032,52.403217 332.967712,48.461136 
z"/>
<path fill="#FB58CD" opacity="1.000000" stroke="none" 
	d="
M144.058868,79.068459 
	C145.452209,76.496719 146.845535,73.924980 148.238861,71.353241 
	C147.588242,71.426842 146.937607,71.500435 146.286987,71.574036 
	C143.928711,69.258415 140.779266,67.327957 139.416092,64.527885 
	C137.780106,61.167423 141.044998,58.106956 144.509186,59.057991 
	C151.867355,61.078056 155.191635,59.291565 157.676392,51.962749 
	C157.939270,51.187393 158.120514,50.384365 158.421173,49.300182 
	C163.985352,50.661789 165.171173,55.100079 166.533417,59.855774 
	C166.608902,63.832916 167.049911,67.760437 166.008286,71.244720 
	C165.179688,74.016434 162.486893,76.209961 160.728973,78.734856 
	C160.007828,79.770638 159.568451,81.002609 158.844986,82.860016 
	C158.566605,84.533363 158.130280,85.580246 158.371048,86.436806 
	C160.387695,93.610909 156.276917,97.831398 151.479584,102.004257 
	C145.318039,97.588104 139.828995,93.356453 143.052994,84.815674 
	C143.369171,83.978065 142.998337,82.881111 143.061981,81.607346 
	C143.471344,80.562927 143.765106,79.815697 144.058868,79.068459 
z"/>
<path fill="#8C01C9" opacity="1.000000" stroke="none" 
	d="
M183.188690,476.543457 
	C191.332809,476.164368 198.509644,477.796692 203.825668,484.853699 
	C206.547241,488.466492 211.131927,489.118500 215.117203,486.710083 
	C222.854538,482.034241 230.395767,482.622314 238.312164,486.128387 
	C245.128067,489.147064 251.552673,488.832397 256.806427,482.116760 
	C263.647644,483.167175 265.553436,485.890106 264.459442,492.684998 
	C236.794296,492.684998 209.098099,492.684998 181.106445,492.684998 
	C181.796829,487.260986 182.451920,482.114227 183.188690,476.543457 
z"/>
<path fill="#570C80" opacity="1.000000" stroke="none" 
	d="
M377.866394,466.166077 
	C386.943970,466.101257 396.021545,466.036469 405.560333,466.061340 
	C407.601166,468.840790 409.180817,471.530548 410.875732,474.936646 
	C411.381073,477.092102 411.744781,478.539001 412.165710,479.969025 
	C414.033417,486.314240 412.020477,488.636383 405.706482,487.082397 
	C400.713135,485.853455 395.870026,483.961182 390.843414,482.936066 
	C386.207184,481.990509 381.381317,481.217621 376.703796,481.488342 
	C373.396545,481.679810 370.197479,483.739136 366.950104,484.964630 
	C366.961578,484.500366 366.973053,484.036133 366.988037,483.262543 
	C366.991547,482.953217 366.919281,482.998383 367.208893,482.893707 
	C367.643555,482.215881 367.788605,481.642761 368.210938,480.874542 
	C371.614258,475.841675 374.740326,471.003876 377.866394,466.166077 
z"/>
<path fill="#8D01CB" opacity="1.000000" stroke="none" 
	d="
M377.449219,466.081635 
	C374.740326,471.003876 371.614258,475.841675 367.873291,480.987122 
	C367.145325,481.862610 367.032288,482.430511 366.919281,482.998383 
	C366.919281,482.998383 366.991547,482.953217 366.974426,482.914398 
	C365.346283,483.728577 363.446930,484.277100 362.171967,485.484833 
	C354.845917,492.424438 345.525177,494.344360 336.166656,494.797272 
	C326.932922,495.244171 317.617615,494.004944 308.561432,493.517487 
	C307.431274,488.444885 307.935760,484.924438 311.654541,482.082886 
	C322.681213,484.674591 333.162445,489.957306 344.564453,485.816406 
	C349.807739,483.912201 354.942749,481.466431 359.726685,478.598724 
	C366.699341,474.418976 368.038971,467.136810 368.891296,459.742859 
	C369.134399,457.634003 369.869354,455.581879 370.637512,453.237183 
	C371.303802,457.064148 371.711334,461.157684 372.149658,465.559967 
	C373.842529,465.711578 375.437286,465.854370 377.449219,466.081635 
z"/>
<path fill="#02C1D5" opacity="1.000000" stroke="none" 
	d="
M222.223419,160.802521 
	C224.015762,165.632935 225.652451,170.173798 227.252518,175.093155 
	C219.237167,179.731750 211.258423,183.991837 202.517807,188.658722 
	C200.314499,180.159424 198.222046,172.087799 195.886124,163.076950 
	C202.895386,160.867676 209.750031,158.707123 216.853378,156.247498 
	C220.020630,156.095627 221.521194,157.785400 222.223419,160.802521 
z"/>
<path fill="#570C80" opacity="1.000000" stroke="none" 
	d="
M98.307350,480.855591 
	C98.214500,472.507263 98.121651,464.158966 98.098679,455.331116 
	C100.346458,455.687012 102.524345,456.522400 104.851433,457.672119 
	C105.013298,465.793182 106.026970,467.276276 113.525681,469.756714 
	C119.484467,471.727753 124.587975,474.791016 127.833862,480.923828 
	C124.849144,483.222504 122.114899,485.133209 119.120483,486.454132 
	C111.844414,489.663849 108.322571,488.844147 102.739311,483.282074 
	C101.826332,482.372559 100.673485,481.703827 99.411026,480.923523 
	C98.901405,480.832367 98.607010,480.809814 98.307350,480.855591 
z"/>
<path fill="#8C01C9" opacity="1.000000" stroke="none" 
	d="
M366.621002,485.141968 
	C370.197479,483.739136 373.396545,481.679810 376.703796,481.488342 
	C381.381317,481.217621 386.207184,481.990509 390.843414,482.936066 
	C395.870026,483.961182 400.713135,485.853455 405.706482,487.082397 
	C412.020477,488.636383 414.033417,486.314240 412.165710,479.969025 
	C411.744781,478.539001 411.381073,477.092102 411.003815,475.247009 
	C415.822601,477.863586 417.785492,482.709442 418.880188,487.877991 
	C419.389313,490.281738 419.069305,492.935486 415.347473,492.927338 
	C398.434296,492.890228 381.520996,492.911072 363.073822,492.911072 
	C364.359528,489.877960 365.325714,487.598633 366.621002,485.141968 
z"/>
<path fill="#03BFD7" opacity="1.000000" stroke="none" 
	d="
M97.860832,287.998138 
	C95.249840,287.996552 92.638847,287.994995 89.593491,288.002441 
	C88.105423,285.827820 86.374565,283.714203 86.140137,281.445953 
	C85.664360,276.842560 85.845222,272.147736 86.080833,267.507141 
	C86.163437,265.880096 87.200539,264.301514 88.429619,262.348083 
	C91.776100,261.960388 94.494736,261.925446 97.213371,261.890503 
	C100.418587,261.906311 103.623810,261.922119 107.308823,262.403015 
	C108.320587,267.131317 108.852554,271.394440 109.384529,275.657593 
	C106.819199,275.657593 104.253868,275.657593 101.298218,275.657593 
	C101.198586,277.340942 101.116814,278.722748 101.030945,280.952240 
	C101.578171,284.686676 100.510445,286.746429 97.860832,287.998138 
z"/>
<path fill="#8D01CB" opacity="1.000000" stroke="none" 
	d="
M89.756592,477.103546 
	C89.794983,478.126251 89.833374,479.148987 89.492203,480.711731 
	C88.409355,483.222015 87.706070,485.192200 87.002777,487.162415 
	C78.666649,479.272583 70.279579,471.434601 62.095482,463.390106 
	C61.470818,462.776093 61.750839,460.185974 62.518219,459.393066 
	C65.957054,455.839966 69.724693,452.605072 73.820282,449.447388 
	C76.857086,455.412231 79.669815,461.098358 81.962547,466.986969 
	C83.609337,471.216553 83.840469,476.265137 89.756592,477.103546 
z"/>
<path fill="#06BFD7" opacity="1.000000" stroke="none" 
	d="
M239.840927,251.013855 
	C245.171112,251.370102 250.500000,251.988525 255.831802,252.014542 
	C262.128784,252.045273 262.170837,251.867081 261.483795,258.184875 
	C259.882965,256.690979 258.296967,255.210907 256.102295,253.162827 
	C255.448853,255.554626 255.048233,257.020935 254.681808,258.362152 
	C253.707230,257.010193 252.691879,255.601669 251.676529,254.193130 
	C251.148666,254.446075 250.620789,254.699005 250.092926,254.951935 
	C249.623047,256.394348 249.153152,257.836731 248.652328,259.374084 
	C247.610001,258.653839 246.417068,257.829529 244.612411,256.582458 
	C245.144699,260.933868 245.587463,264.553558 246.099304,268.581146 
	C245.402145,272.569519 247.576141,277.863251 240.513397,278.021240 
	C237.370682,277.392273 234.627762,276.749634 231.448669,275.595032 
	C231.064102,268.375793 231.115692,261.668549 231.461182,254.790405 
	C234.450333,253.417618 237.145630,252.215729 239.840927,251.013855 
z"/>
<path fill="#FFF1F9" opacity="1.000000" stroke="none" 
	d="
M142.946381,81.904541 
	C142.998337,82.881111 143.369171,83.978065 143.052994,84.815674 
	C139.828995,93.356453 145.318039,97.588104 151.479584,102.004257 
	C156.276917,97.831398 160.387695,93.610909 158.371048,86.436806 
	C158.130280,85.580246 158.566605,84.533363 158.890472,83.253235 
	C164.542465,84.245056 163.330231,90.037376 166.065765,93.589561 
	C164.861984,97.861305 164.149246,102.064430 162.203140,105.585960 
	C159.376022,110.701729 157.191025,110.578644 153.728210,106.042389 
	C153.024673,105.120758 152.397461,104.140846 151.427231,102.744888 
	C150.074463,104.577309 148.945175,106.288651 147.634399,107.847374 
	C144.158081,111.981285 141.556305,111.921494 139.520142,107.031136 
	C137.497528,102.173332 136.418289,96.922745 134.952698,91.086807 
	C137.635513,87.520988 140.290955,84.712761 142.946381,81.904541 
z"/>
<path fill="#8F02CD" opacity="1.000000" stroke="none" 
	d="
M89.105698,405.273132 
	C89.433243,406.314148 89.907921,407.730316 89.912743,409.148041 
	C89.959167,422.787170 89.926430,436.426575 89.491882,450.468811 
	C84.670334,449.280731 80.273270,447.689758 75.876205,446.098755 
	C73.048027,445.566040 72.531807,444.273315 73.731636,441.534241 
	C78.949104,429.623474 83.953194,417.619232 89.105698,405.273132 
z"/>
<path fill="#6A258E" opacity="1.000000" stroke="none" 
	d="
M340.608429,69.993225 
	C341.035675,71.070473 341.048828,72.197792 341.006348,73.656975 
	C323.440643,74.510452 314.999115,88.340706 319.429138,109.248932 
	C329.746094,110.456406 332.893127,113.218781 334.342224,123.727791 
	C334.968536,128.269791 334.424011,132.983948 334.289764,137.616364 
	C334.199585,140.728729 332.416809,141.591751 329.586639,140.776962 
	C330.450378,139.580963 332.030273,138.402969 332.006439,137.258392 
	C331.876221,131.007721 332.014618,124.628906 330.766327,118.560402 
	C329.638855,113.079353 325.279633,111.110046 319.614899,111.882988 
	C314.695801,112.554169 311.490723,115.539093 311.805542,121.124825 
	C312.189819,127.943039 313.829926,134.690475 314.920258,141.427383 
	C317.705017,141.262222 319.104797,141.179199 320.714325,141.083740 
	C317.423218,144.860291 314.947601,145.010345 313.750854,141.201523 
	C311.874268,135.229126 310.297272,129.062576 309.564453,122.863457 
	C309.008942,118.163651 310.678955,113.760368 315.231628,110.877464 
	C316.251740,110.231483 316.738983,107.815163 316.547028,106.333656 
	C315.232544,96.187637 316.668182,86.774101 323.088745,78.139114 
	C328.061005,73.646179 333.363861,70.148956 340.608429,69.993225 
z"/>
<path fill="#8D01CB" opacity="1.000000" stroke="none" 
	d="
M99.631523,480.923828 
	C100.673485,481.703827 101.826332,482.372559 102.739311,483.282074 
	C108.322571,488.844147 111.844414,489.663849 119.120483,486.454132 
	C122.114899,485.133209 124.849144,483.222504 127.855408,481.272522 
	C132.927673,481.871460 136.283203,486.036865 135.490540,490.565277 
	C135.335022,491.453735 134.294724,492.627716 133.429428,492.884460 
	C122.990974,495.981781 112.447914,497.101624 101.432877,493.483582 
	C100.604324,488.947876 100.117928,484.935822 99.631523,480.923828 
z"/>
<path fill="#03E3E0" opacity="1.000000" stroke="none" 
	d="
M97.137894,261.481293 
	C94.494736,261.925446 91.776100,261.960388 88.610306,261.989197 
	C86.277184,251.029648 84.380722,240.078003 82.509888,229.121979 
	C81.643005,224.045273 80.826050,218.960037 79.935417,213.457489 
	C80.240433,213.023193 80.596489,213.010056 81.219101,212.983078 
	C83.314903,218.561401 84.887146,224.256897 87.076889,229.704163 
	C88.252129,232.627731 90.488586,235.124710 92.641602,238.177887 
	C93.108727,238.696106 93.180428,238.850616 93.252136,239.005127 
	C94.522232,246.360764 95.792328,253.716415 97.137894,261.481293 
z"/>
<path fill="#570C80" opacity="1.000000" stroke="none" 
	d="
M75.799980,446.383240 
	C80.273270,447.689758 84.670334,449.280731 89.414795,450.931030 
	C89.811676,459.379120 89.861160,467.767883 89.833618,476.630096 
	C83.840469,476.265137 83.609337,471.216553 81.962547,466.986969 
	C79.669815,461.098358 76.857086,455.412231 74.132652,449.327942 
	C74.573509,448.233521 75.148636,447.450623 75.799980,446.383240 
z"/>
<path fill="#06BFD7" opacity="1.000000" stroke="none" 
	d="
M271.602661,266.013855 
	C271.065857,265.708191 270.819275,265.206055 270.930267,265.107819 
	C275.453430,261.103577 271.761230,256.957336 271.168518,252.504150 
	C273.979431,252.112289 276.792084,252.072464 279.604767,252.070709 
	C288.798035,252.065018 290.876862,255.016174 288.011322,264.444519 
	C282.662018,265.229095 277.360809,265.617401 271.602661,266.013855 
z"/>
<path fill="#03BFD7" opacity="1.000000" stroke="none" 
	d="
M99.411026,480.923492 
	C100.117928,484.935822 100.604324,488.947876 101.020996,493.397980 
	C96.512070,493.836060 92.072868,493.836060 87.007362,493.836060 
	C87.007362,491.845673 87.007362,489.944031 87.005074,487.602417 
	C87.706070,485.192200 88.409355,483.222015 89.428551,481.092163 
	C92.282326,480.933899 94.820190,480.935211 97.832703,480.896057 
	C98.607010,480.809814 98.901405,480.832367 99.411026,480.923492 
z"/>
<path fill="#590C80" opacity="1.000000" stroke="none" 
	d="
M360.069946,71.876152 
	C359.182098,70.332672 358.294281,68.789185 357.706726,67.097168 
	C361.268433,68.763329 364.529877,70.578018 367.940918,72.706085 
	C368.090546,73.019463 368.002838,73.477104 367.890747,73.936852 
	C367.505310,74.603172 367.232025,74.809746 366.656616,74.837341 
	C364.259674,73.730957 362.164795,72.803551 360.069946,71.876152 
z"/>
<path fill="#03E3E0" opacity="1.000000" stroke="none" 
	d="
M340.839355,82.371048 
	C348.921600,86.064209 353.737183,85.241325 359.892456,78.956108 
	C362.652405,87.329361 364.898376,95.593323 366.697754,103.908859 
	C362.027863,103.644791 357.804626,103.329140 353.319214,102.993904 
	C352.220856,115.644211 351.166290,127.790100 349.753937,140.031982 
	C348.657532,140.913651 347.498291,141.586502 347.252136,142.504242 
	C346.108459,146.768631 344.393829,151.116394 344.474823,155.404266 
	C344.551361,159.455612 342.212067,164.768890 347.817993,167.894775 
	C347.173431,176.212158 346.518463,184.131622 345.837463,192.365692 
	C356.552460,193.337509 366.783081,194.265411 377.013672,195.193314 
	C376.777100,203.864532 376.540527,212.535767 376.190063,221.607239 
	C361.578735,224.600113 347.028198,224.886917 331.978027,222.936096 
	C333.350555,202.038635 335.597534,181.244217 336.884796,160.390549 
	C338.399567,135.851608 339.076050,111.261024 340.142120,86.693954 
	C340.199341,85.375252 340.497711,84.067009 340.839355,82.371048 
z"/>
<path fill="#000000" opacity="1.000000" stroke="none" 
	d="
M351.283264,353.628357 
	C346.332703,339.284790 351.034607,325.737732 352.931000,312.059784 
	C354.380951,301.601562 355.776855,291.135834 357.399536,279.179871 
	C359.064575,291.838135 360.953217,302.963623 361.901215,314.168732 
	C363.288483,330.565857 364.009857,347.019531 364.998840,363.450104 
	C365.681488,374.790497 366.265930,386.137329 367.027771,397.472290 
	C367.587616,405.801941 368.363800,414.117065 368.338074,422.545868 
	C362.723175,399.695923 357.108276,376.845978 351.283264,353.628357 
z"/>
<path fill="#000000" opacity="1.000000" stroke="none" 
	d="
M270.857483,248.626801 
	C266.917969,243.283188 263.098175,237.545120 259.127319,231.509201 
	C259.112976,229.446976 260.072296,226.857727 259.258636,226.046310 
	C251.495987,218.304916 249.874359,208.158859 247.712143,198.183945 
	C247.616272,197.741669 247.260986,197.355652 247.016129,196.554810 
	C254.412720,193.221756 262.023804,190.696060 269.168823,187.213959 
	C276.182739,183.795746 282.722931,179.405441 290.207428,175.009186 
	C286.371094,200.298569 278.099518,224.121429 270.857483,248.626801 
z"/>
<path fill="#FD59CE" opacity="1.000000" stroke="none" 
	d="
M109.601944,275.905579 
	C108.852554,271.394440 108.320587,267.131317 107.743378,262.412476 
	C108.241737,259.865479 108.987900,257.801178 109.270645,255.675201 
	C109.540886,253.643250 109.328957,251.547195 109.328957,248.366028 
	C115.876419,243.246323 124.766960,241.956421 134.036423,243.247940 
	C135.975449,243.518097 137.943008,246.037506 139.239380,247.963364 
	C142.075974,252.177307 144.490372,256.675415 146.659119,261.500610 
	C144.273987,261.943726 142.306946,261.943726 138.766129,261.943726 
	C141.168198,267.158173 143.125565,271.407257 145.082916,275.656342 
	C145.205688,280.057190 145.124527,283.446045 138.617950,282.286377 
	C135.239578,281.684265 131.337265,284.831573 127.680450,284.809692 
	C120.589668,284.767395 112.722946,285.263855 109.601944,275.905579 
z"/>
<path fill="#000000" opacity="1.000000" stroke="none" 
	d="
M231.167297,254.961304 
	C231.115692,261.668549 231.064102,268.375793 231.079437,275.547974 
	C231.424133,288.031494 231.701889,300.050049 231.906677,312.532898 
	C230.221405,303.762390 228.901199,294.464569 226.925659,285.308105 
	C224.224670,272.789093 221.025284,260.377563 218.029327,247.531799 
	C220.730209,246.106720 221.799820,244.619751 220.085678,241.716797 
	C219.165359,240.158234 218.928589,238.196030 218.371307,236.376633 
	C221.454193,236.956345 224.519745,237.532806 227.804596,238.799606 
	C229.071686,244.647064 230.119492,249.804184 231.167297,254.961304 
z"/>
<path fill="#000000" opacity="1.000000" stroke="none" 
	d="
M143.061981,81.607346 
	C140.290955,84.712761 137.635513,87.520988 134.886230,90.676865 
	C132.479553,91.023926 130.166702,91.023338 127.422638,91.113319 
	C126.645103,89.659943 125.563126,87.081131 126.062187,86.726357 
	C134.327042,80.850952 131.900818,72.816231 130.844910,64.992073 
	C130.342728,61.270840 130.084763,57.516651 130.212479,53.674881 
	C130.596939,64.245911 136.073700,72.014046 143.741882,78.938553 
	C143.765106,79.815697 143.471344,80.562927 143.061981,81.607346 
z"/>
<path fill="#06BFD7" opacity="1.000000" stroke="none" 
	d="
M145.454147,275.651611 
	C143.125565,271.407257 141.168198,267.158173 138.766129,261.943726 
	C142.306946,261.943726 144.273987,261.943726 146.685913,261.869568 
	C148.482269,262.477020 149.833710,263.158661 151.447159,264.038361 
	C152.725800,273.268707 152.108322,274.466187 145.454147,275.651611 
z"/>
<path fill="#03E3E0" opacity="1.000000" stroke="none" 
	d="
M231.461182,254.790405 
	C230.119492,249.804184 229.071686,244.647064 228.095184,239.056992 
	C231.155090,239.999969 234.143707,241.375916 237.497070,242.714935 
	C238.566818,245.194824 239.271820,247.711609 239.908875,250.621124 
	C237.145630,252.215729 234.450333,253.417618 231.461182,254.790405 
z"/>
<path fill="#8E5457" opacity="1.000000" stroke="none" 
	d="
M136.725189,234.236160 
	C136.267471,231.234299 131.894913,228.760681 135.926117,225.985245 
	C136.829056,229.500259 137.729233,233.004532 138.629395,236.508789 
	C138.457123,236.589584 138.284836,236.670380 138.112564,236.751175 
	C137.688599,236.028137 137.264648,235.305115 136.725189,234.236160 
z"/>
<path fill="#F1DE10" opacity="1.000000" stroke="none" 
	d="
M93.576843,238.965332 
	C93.180428,238.850616 93.108727,238.696106 92.960869,238.297699 
	C95.026360,237.530685 97.167999,237.007538 99.559273,236.423416 
	C100.031448,238.421661 100.464249,240.253311 100.789787,241.630997 
	C98.441269,240.708572 96.171410,239.817047 93.576843,238.965332 
z"/>
<path fill="#8E5457" opacity="1.000000" stroke="none" 
	d="
M138.483002,223.756989 
	C137.975433,224.377243 137.630508,224.678711 137.285583,224.980164 
	C137.441513,224.109726 137.597443,223.239288 137.753372,222.368851 
	C138.050797,222.725296 138.348236,223.081757 138.483002,223.756989 
z"/>
<path fill="#8E5457" opacity="1.000000" stroke="none" 
	d="
M135.501526,205.581680 
	C135.768326,206.069138 136.035126,206.556610 136.301941,207.044067 
	C135.842422,206.900925 135.382904,206.757767 135.044220,206.241135 
	C135.165024,205.867661 135.501526,205.581680 135.501526,205.581680 
z"/>
<path fill="#F1DE10" opacity="1.000000" stroke="none" 
	d="
M103.707504,248.116943 
	C103.789322,248.409271 103.702850,248.785751 103.490448,248.880814 
	C103.334732,248.950500 103.013779,248.650909 102.766479,248.515915 
	C103.006058,248.370758 103.245644,248.225601 103.707504,248.116943 
z"/>
<path fill="#8E5457" opacity="1.000000" stroke="none" 
	d="
M134.996719,206.010590 
	C134.449783,205.773193 134.071152,205.392868 133.741135,204.620605 
	C133.789749,204.228683 134.067474,203.924347 134.067474,203.924347 
	C134.458740,204.310944 134.850006,204.697540 135.371399,205.332916 
	C135.501526,205.581680 135.165024,205.867661 134.996719,206.010590 
z"/>
<path fill="#8E5457" opacity="1.000000" stroke="none" 
	d="
M124.266747,193.740875 
	C124.432121,194.130615 124.597488,194.520340 124.762863,194.910095 
	C124.494568,194.913910 124.226280,194.917709 123.947678,194.495544 
	C123.937370,194.069550 124.266747,193.740875 124.266747,193.740875 
z"/>
<path fill="#8E5457" opacity="1.000000" stroke="none" 
	d="
M125.847313,197.158493 
	C125.671448,196.791412 125.495583,196.424332 125.319725,196.057251 
	C125.583397,196.048904 125.847069,196.040543 126.141006,196.424835 
	C126.171272,196.817474 125.847313,197.158493 125.847313,197.158493 
z"/>
<path fill="#8E5457" opacity="1.000000" stroke="none" 
	d="
M126.814613,198.190002 
	C126.546646,198.003860 126.278687,197.817719 125.929016,197.395020 
	C125.847313,197.158493 126.171272,196.817474 126.344604,196.652924 
	C126.797073,196.648193 127.026604,196.861450 127.160515,197.500977 
	C127.114510,197.873840 126.814613,198.190002 126.814613,198.190002 
z"/>
<path fill="#8E5457" opacity="1.000000" stroke="none" 
	d="
M127.822594,199.182892 
	C127.474045,199.122162 127.200256,198.945541 126.907928,198.421524 
	C126.814613,198.190002 127.114510,197.873840 127.266190,197.714264 
	C127.717842,197.687775 127.971878,197.881210 128.148605,198.503510 
	C128.117249,198.872040 127.822594,199.182892 127.822594,199.182892 
z"/>
<path fill="#8E5457" opacity="1.000000" stroke="none" 
	d="
M128.823471,200.184128 
	C128.482040,200.109665 128.211288,199.929199 127.916901,199.412811 
	C127.822594,199.182892 128.117249,198.872040 128.266113,198.714752 
	C128.721298,198.688324 128.997925,198.865524 129.207855,199.457611 
	C129.170853,199.826157 128.823471,200.184128 128.823471,200.184128 
z"/>
<path fill="#8E5457" opacity="1.000000" stroke="none" 
	d="
M129.871109,201.143280 
	C129.589813,200.976227 129.308533,200.809174 128.925354,200.413116 
	C128.823471,200.184128 129.170853,199.826157 129.357391,199.655457 
	C129.822113,199.652557 130.067474,199.859329 130.230896,200.465195 
	C130.181763,200.825333 129.871109,201.143280 129.871109,201.143280 
z"/>
<path fill="#8E5457" opacity="1.000000" stroke="none" 
	d="
M130.348175,200.678009 
	C130.672882,200.890488 130.831177,201.250290 130.989471,201.610107 
	C130.719147,201.616852 130.448837,201.623596 130.024811,201.386810 
	C129.871109,201.143280 130.181763,200.825333 130.348175,200.678009 
z"/>
<path fill="#8E5457" opacity="1.000000" stroke="none" 
	d="
M132.494888,203.470444 
	C132.325592,203.119461 132.156311,202.768494 131.987015,202.417511 
	C132.259323,202.419968 132.531616,202.422409 132.791107,202.809784 
	C132.778290,203.194687 132.494888,203.470444 132.494888,203.470444 
z"/>
<path fill="#8E5457" opacity="1.000000" stroke="none" 
	d="
M133.636719,204.366623 
	C133.196701,204.345551 132.954971,204.134674 132.626709,203.671173 
	C132.494888,203.470444 132.778290,203.194687 132.926483,203.063660 
	C133.422974,202.990311 133.695389,203.165802 133.979691,203.691742 
	C134.067474,203.924347 133.789749,204.228683 133.636719,204.366623 
z"/>
<path fill="#8E5457" opacity="1.000000" stroke="none" 
	d="
M122.814293,193.186157 
	C122.682495,192.875137 122.550690,192.564117 122.418892,192.253113 
	C122.658195,192.223831 122.897491,192.194565 123.147446,192.501495 
	C123.158089,192.837677 122.814293,193.186157 122.814293,193.186157 
z"/>
<path fill="#8E5457" opacity="1.000000" stroke="none" 
	d="
M123.338020,192.671722 
	C123.811607,192.686050 124.016243,192.938477 124.199303,193.501984 
	C124.266747,193.740875 123.937370,194.069550 123.772690,194.235870 
	C123.380104,194.161819 123.152199,193.921448 122.869293,193.433624 
	C122.814293,193.186157 123.158089,192.837677 123.338020,192.671722 
z"/>
<path fill="#000000" opacity="1.000000" stroke="none" 
	d="
M97.922043,288.464050 
	C100.510445,286.746429 101.578171,284.686676 101.098122,281.398682 
	C107.111603,297.145966 113.319717,313.206055 118.746864,329.525879 
	C119.705086,332.407318 117.840660,336.549713 116.529564,339.807922 
	C110.763321,354.137695 104.721985,368.356750 98.473511,382.807373 
	C98.105530,351.642487 98.044395,320.286224 97.922043,288.464050 
z"/>
<path fill="#000000" opacity="1.000000" stroke="none" 
	d="
M233.907715,471.535645 
	C225.863312,471.354584 218.719376,469.130524 214.204529,461.418976 
	C216.447205,461.095917 218.770798,461.095917 222.138443,461.095917 
	C225.776917,423.895844 229.831512,386.829712 231.495636,349.262238 
	C232.224213,371.673431 232.604828,394.339355 233.001846,417.005035 
	C233.317520,435.027100 233.653290,453.048798 233.907715,471.535645 
z"/>
<path fill="#580B81" opacity="1.000000" stroke="none" 
	d="
M172.715088,295.391541 
	C171.647079,286.333282 170.703552,277.706360 169.760010,269.079407 
	C170.184357,269.034515 170.608719,268.989655 171.033066,268.944763 
	C172.388657,280.857697 173.744247,292.770630 175.099838,304.683563 
	C174.666077,304.755463 174.232330,304.827393 173.798569,304.899323 
	C173.478897,301.873840 173.159210,298.848358 172.715088,295.391541 
z"/>
<path fill="#8F02CD" opacity="1.000000" stroke="none" 
	d="
M350.111725,139.936005 
	C351.166290,127.790100 352.220856,115.644211 353.319214,102.993904 
	C357.804626,103.329140 362.027863,103.644791 367.074158,103.985558 
	C368.916809,104.032455 369.936371,104.054222 371.168945,104.305588 
	C371.980499,104.593163 372.579010,104.651138 373.177551,104.709106 
	C373.883331,104.751709 374.589081,104.794312 375.666046,105.308395 
	C375.541687,108.993828 376.862122,110.058365 380.135651,110.112984 
	C385.228699,110.197960 390.416901,110.401443 395.367584,111.469154 
	C399.842407,112.434219 401.186584,110.945885 401.076172,106.900810 
	C408.515503,107.535332 415.954834,108.169853 423.910065,108.848373 
	C422.775452,122.687553 421.669220,136.180832 420.509155,150.330673 
	C404.433319,148.213028 388.671509,146.136749 372.201355,143.910431 
	C368.822510,141.529190 366.260468,139.147690 363.446228,137.115417 
	C361.282959,135.553238 358.802185,134.430725 356.462585,133.112686 
	C356.683868,135.702866 356.905151,138.293045 357.057068,140.950623 
	C356.987732,141.018005 356.853302,141.157028 356.465332,141.174835 
	C354.088806,140.773743 352.100250,140.354874 350.111725,139.936005 
z"/>
<path fill="#8F05CE" opacity="1.000000" stroke="none" 
	d="
M377.440186,195.142883 
	C366.783081,194.265411 356.552460,193.337509 345.837463,192.365692 
	C346.518463,184.131622 347.173431,176.212158 347.897888,167.531387 
	C352.050476,164.379684 355.229004,167.132538 358.414520,168.850433 
	C362.207245,170.895782 365.635376,173.589615 370.187500,170.463882 
	C370.906158,169.970428 372.597015,170.892822 373.838348,171.160568 
	C373.085510,176.923157 376.097168,179.930527 381.195862,181.775452 
	C391.958252,185.669708 402.662231,189.727844 413.345032,193.836121 
	C414.609131,194.322250 415.591248,195.541595 416.704071,196.421051 
	C415.366028,196.952988 413.989410,198.024857 412.695984,197.932419 
	C401.077881,197.102142 389.474426,196.067261 377.440186,195.142883 
z"/>
<path fill="#FB82DE" opacity="1.000000" stroke="none" 
	d="
M373.878723,170.713257 
	C372.597015,170.892822 370.906158,169.970428 370.187500,170.463882 
	C365.635376,173.589615 362.207245,170.895782 358.414520,168.850433 
	C355.229004,167.132538 352.050476,164.379684 347.887451,167.133453 
	C342.212067,164.768890 344.551361,159.455612 344.474823,155.404266 
	C344.393829,151.116394 346.108459,146.768631 347.252136,142.504242 
	C347.498291,141.586502 348.657532,140.913651 349.753937,140.031998 
	C352.100250,140.354874 354.088806,140.773743 356.549683,141.352936 
	C357.238007,141.470184 357.453979,141.427094 357.669983,141.384003 
	C357.488800,141.217087 357.307617,141.050171 357.126434,140.883240 
	C356.905151,138.293045 356.683868,135.702866 356.462585,133.112686 
	C358.802185,134.430725 361.282959,135.553238 363.446228,137.115417 
	C366.260468,139.147690 368.822510,141.529190 371.786377,143.941330 
	C372.692841,152.836823 373.306000,161.551376 373.878723,170.713257 
z"/>
<path fill="#590C80" opacity="1.000000" stroke="none" 
	d="
M401.035614,106.482590 
	C401.186584,110.945885 399.842407,112.434219 395.367584,111.469154 
	C390.416901,110.401443 385.228699,110.197960 380.135651,110.112984 
	C376.862122,110.058365 375.541687,108.993828 376.017944,105.344986 
	C376.366913,103.662148 376.735199,102.414185 377.251404,100.664902 
	C384.355347,101.196510 391.515717,101.602127 398.627869,102.424873 
	C399.544983,102.530960 400.212128,104.798225 401.035614,106.482590 
z"/>
<path fill="#6A258E" opacity="1.000000" stroke="none" 
	d="
M373.143616,104.314651 
	C372.579010,104.651138 371.980499,104.593163 371.186707,103.863007 
	C372.645416,93.370186 372.529144,83.802925 366.958740,75.016327 
	C367.232025,74.809746 367.505310,74.603172 367.905334,74.169380 
	C374.407959,81.296547 374.314606,90.115654 373.688904,99.043831 
	C373.574585,100.674805 373.306732,102.295013 373.143616,104.314651 
z"/>
<path fill="#FDF2FE" opacity="1.000000" stroke="none" 
	d="
M366.656616,74.837349 
	C372.529144,83.802925 372.645416,93.370186 370.973694,103.633408 
	C369.936371,104.054222 368.916809,104.032455 367.520782,103.933983 
	C364.898376,95.593323 362.652405,87.329361 360.179260,78.728218 
	C359.808655,76.329056 359.665192,74.267067 359.795837,72.040611 
	C362.164795,72.803551 364.259674,73.730957 366.656616,74.837349 
z"/>
<path fill="#FD59CE" opacity="1.000000" stroke="none" 
	d="
M351.993347,58.995159 
	C349.836365,60.971046 347.792389,63.105667 345.427460,64.789513 
	C344.951874,65.128166 343.257385,63.754951 342.124878,63.171005 
	C342.989746,62.454044 343.748260,61.466267 344.741547,61.076191 
	C346.844269,60.250423 349.069519,59.736561 351.622253,59.047386 
	C352.000000,58.999989 351.993347,58.995163 351.993347,58.995159 
z"/>
<path fill="#FD59CE" opacity="1.000000" stroke="none" 
	d="
M353.062561,57.929657 
	C352.909790,58.159546 352.695740,58.452812 352.237518,58.870621 
	C351.993347,58.995163 352.000000,58.999989 352.002380,59.003220 
	C352.221100,58.719814 352.437469,58.433174 352.891449,58.009426 
	C353.129059,57.872322 353.001282,57.993034 353.062561,57.929657 
z"/>
<path fill="#000000" opacity="1.000000" stroke="none" 
	d="
M367.208893,482.893707 
	C367.032288,482.430511 367.145325,481.862610 367.596008,481.182190 
	C367.788605,481.642761 367.643555,482.215881 367.208893,482.893707 
z"/>
<path fill="#8F02CD" opacity="1.000000" stroke="none" 
	d="
M357.057068,140.950623 
	C357.307617,141.050171 357.488800,141.217087 357.669983,141.384003 
	C357.453979,141.427094 357.238007,141.470184 356.937653,141.335144 
	C356.853302,141.157028 356.987732,141.018005 357.057068,140.950623 
z"/>
</svg>